<svg xmlns="http://www.w3.org/2000/svg" xmlns:xlink="http://www.w3.org/1999/xlink" viewBox="0 0 536.62 597" id="arranging-files">
  <defs>
    <linearGradient id="a" x1="-58.32" x2="370.33" y1="658.79" y2="66.03" gradientUnits="userSpaceOnUse">
      <stop offset="0" stop-opacity="0"></stop>
      <stop offset=".85" stop-opacity=".51"></stop>
      <stop offset=".99"></stop>
    </linearGradient>
    <linearGradient id="c" x1="252.96" x2="254.39" y1="39.85" y2="132.97" gradientUnits="userSpaceOnUse">
      <stop offset="0" stop-color="#183866"></stop>
      <stop offset="1" stop-color="#1a7fc1"></stop>
    </linearGradient>
    <linearGradient xlink:href="#a" id="d" x1="143.16" x2="315.08" y1="638.55" y2="268.54"></linearGradient>
    <linearGradient xlink:href="#a" id="e" x1="576.66" x2="653.84" y1="397.33" y2="279.04"></linearGradient>
    <linearGradient id="f" x1="415.77" x2="468.93" y1="418.91" y2="418.91" gradientUnits="userSpaceOnUse">
      <stop offset="0" stop-color="#68e1fd"></stop>
      <stop offset="1" stop-color="#69b9eb"></stop>
    </linearGradient>
    <linearGradient id="b" x1="436.82" x2="462.01" y1="296.31" y2="295.85" gradientUnits="userSpaceOnUse">
      <stop offset="0" stop-color="#ecc4d7"></stop>
      <stop offset=".42" stop-color="#efd4d1"></stop>
      <stop offset="1" stop-color="#f2eac9"></stop>
    </linearGradient>
    <linearGradient xlink:href="#b" id="g" x1="587.02" x2="581.83" y1="292.22" y2="294.97"></linearGradient>
    <linearGradient id="h" x1="541.43" x2="594.56" y1="308.75" y2="366.46" gradientUnits="userSpaceOnUse">
      <stop offset=".02" stop-color="#68e1fd"></stop>
      <stop offset="1" stop-color="#fff"></stop>
    </linearGradient>
    <linearGradient xlink:href="#b" id="i" x1="490.35" x2="518.49" y1="332.67" y2="332.67"></linearGradient>
  </defs>
  <path fill="#1d2741" d="M523.26 569.61q-25.93 3-51.92 5.23a9.23 9.23 0 0 0 .62 1.12c1.83 2.72 5.53 3.25 8.56 4.52s5.89 4.95 3.89 7.56c-1 1.3-2.75 1.66-4.36 1.93l-17.89 3c-21.78 3.64-44.78 7.18-65.43-.67-8.54-3.26-9.14-8.17-6.16-12.31-110.7 4.8-221.91 1.14-332.76-2.53-9 0-19.06-2.41-21.47-11.49 57.12-25.67 112.52-25.84 174.36-27.48l217.48-5.78c3.73-.1 7.71-.13 10.89 1.83s5 5.71 7.67 8.48c8 8.34 21.38 6.57 32.89 5.72a126.65 126.65 0 0 1 49.63 6.31c2.2.74 4.56 1.69 5.68 3.72 3.04 5.55-5.4 10.1-11.68 10.84Z" opacity=".18"></path>
  <path fill="#68e1fd" d="M232.41 2.05c-29.21 6.11-54.86 23.52-77.15 43.38s-42 42.47-64.66 61.89c-35.11 30.12-80.13 57.08-89 102.47-7.14 36.42 12.13 72.81 13 109.91.56 28.06-9.34 55.3-11.51 83.3-2.09 27.58 4.17 56.8 22.28 77.71 25.83 29.84 70 36.83 109.1 31.21s75.88-21.6 114.43-30.07c46.44-10.21 94.68-9.38 142-4.34 28.94 3.09 59.18 7.57 86.39-2.77 24.16-9.18 43.26-29.81 52.46-54s8.86-51.46 1-76.09c-10.87-34.11-35-62.28-50.37-94.61-13.08-27.49-19.63-57.54-26.83-87.12-4.77-19.59-10.25-39.88-23.46-55.11-15.15-17.48-38-25.64-58.32-36.74-49.04-26.8-75.22-82.42-139.36-69.02Z" opacity=".18"></path>
  <path fill="#68e1fd" d="M119.73 36.49H293.1v534.75H119.73a31.58 31.58 0 0 1-31.58-31.58V68.07a31.58 31.58 0 0 1 31.58-31.58Z"></path>
  <path fill="url(#a)" d="M119.73 36.49H293.1v534.75H119.73a31.58 31.58 0 0 1-31.58-31.58V68.07a31.58 31.58 0 0 1 31.58-31.58Z" style="isolation:isolate"></path>
  <rect width="303.07" height="534.75" x="101.64" y="36.49" fill="#68e1fd" rx="37.29"></rect>
  <path fill="#fff" d="M391.4 68.59v444.8a18.89 18.89 0 0 1-18.9 18.88H133.83a18.88 18.88 0 0 1-18.88-18.88V68.59a18.89 18.89 0 0 1 18.89-18.89h47.19v5.94a19 19 0 0 0 19 19h105.9a19 19 0 0 0 19-19V49.7h47.56a18.9 18.9 0 0 1 18.91 18.89Z"></path>
  <rect width="59.72" height="5.51" x="223.32" y="51.35" fill="url(#c)" rx="2.53"></rect>
  <path fill="#ebebf0" d="M370.74 49.7v402.08a34.07 34.07 0 0 1-34.07 34.07H114.95V68.59a18.88 18.88 0 0 1 18.89-18.89h47.19v5.94a19 19 0 0 0 19 19h105.9a19 19 0 0 0 19-19V49.7Z"></path>
  <rect width="317.2" height="105.73" x="151.21" y="227.02" fill="#68e1fd" rx="18.32"></rect>
  <rect width="317.2" height="105.73" x="151.21" y="227.02" fill="url(#d)" rx="18.32" style="isolation:isolate"></rect>
  <rect width="317.2" height="105.73" x="156.71" y="220.41" fill="#fff" rx="18.32"></rect>
  <path fill="#fff" d="M143.19 102.83h47.44v47.44h-47.44z"></path>
  <rect width="66.97" height="66.97" x="175.88" y="239.8" fill="#ebebf0" rx="9.49"></rect>
  <path fill="#fff" d="M143.19 161.62h47.44v47.44h-47.44zM143.19 348.57h47.44v47.44h-47.44zM143.19 407.36h47.44v47.44h-47.44z"></path>
  <path fill="#fff" d="M242.84 288.37v8.9a9.49 9.49 0 0 1-9.49 9.49h-48a9.49 9.49 0 0 1-9.49-9.49v-8.9a65.94 65.94 0 0 1 26.53-10.3 14.19 14.19 0 1 1 13.68.12c14.19 2.28 26.77 10.18 26.77 10.18Z" opacity=".38"></path>
  <path fill="#ebebf0" d="M450.2 251.51h-181a3 3 0 0 1-3-3 3 3 0 0 1 3-3h181a3 3 0 0 1 3 3 3 3 0 0 1-3 3Z"></path>
  <rect width="175.24" height="5.67" x="205.49" y="115.22" fill="#fff" rx="2.84"></rect>
  <path fill="#fff" d="M377.88 139.79H208.32a2.84 2.84 0 0 1-2.84-2.84 2.84 2.84 0 0 1 2.84-2.83h169.56a2.84 2.84 0 0 1 2.84 2.83 2.84 2.84 0 0 1-2.84 2.84ZM377.88 178H208.32a2.84 2.84 0 0 1-2.84-2.84 2.84 2.84 0 0 1 2.84-2.83h169.56a2.84 2.84 0 0 1 2.84 2.83 2.84 2.84 0 0 1-2.84 2.84ZM377.88 194.05H208.32a2.84 2.84 0 0 1-2.84-2.84 2.84 2.84 0 0 1 2.84-2.83h169.56a2.84 2.84 0 0 1 2.84 2.83 2.84 2.84 0 0 1-2.84 2.84ZM377.88 367.09H208.32a2.84 2.84 0 0 1-2.84-2.84 2.84 2.84 0 0 1 2.84-2.84h169.56a2.84 2.84 0 0 1 2.84 2.84 2.84 2.84 0 0 1-2.84 2.84ZM377.88 383.17H208.32a2.84 2.84 0 0 1-2.84-2.84 2.84 2.84 0 0 1 2.84-2.84h169.56a2.84 2.84 0 0 1 2.84 2.84 2.84 2.84 0 0 1-2.84 2.84ZM377.88 425.88H208.32a2.84 2.84 0 0 1-2.84-2.84 2.84 2.84 0 0 1 2.84-2.84h169.56a2.84 2.84 0 0 1 2.84 2.84 2.84 2.84 0 0 1-2.84 2.84ZM377.88 442H208.32a2.84 2.84 0 0 1-2.84-2.84 2.84 2.84 0 0 1 2.84-2.84h169.56a2.84 2.84 0 0 1 2.84 2.84 2.84 2.84 0 0 1-2.84 2.84Z"></path>
  <path fill="#ebebf0" d="M450.2 270.8h-181a3 3 0 0 1-3-3 3 3 0 0 1 3-3h181a3 3 0 0 1 3 3 3 3 0 0 1-3 3ZM450.2 290.1h-181a3 3 0 0 1-3-3 3 3 0 0 1 3-3h181a3 3 0 0 1 3 3 3 3 0 0 1-3 3Z"></path>
  <path fill="#3f3d56" d="m415.77 420.85-11.39 83a22 22 0 0 0 1.06 10.37l20.35 60 11.9-3.67-9-59.67a8.63 8.63 0 0 1 .23-3.68l15.46-53.37 6.72 120.39h11l9.47-118.87c3.21-19.84-2.66-34.5-2.66-34.5Z"></path>
  <path fill="#68e1fd" d="M474.19 347.71v57c0 7-1.14 12.65-8.13 12.65h-48.8c-7 0-7.22-5.61-7.27-12.56l-.39-38.8s-10.53 18.81-18.93 17-33.32-36.18-33.32-36.18l12.4-10.43 20.92 21s3.35-7.64 8.24-24.74 20.77-17.18 20.77-17.18h42.44c15.32-.05 12.07 32.24 12.07 32.24Z"></path>
  <path fill="#68e1fd" d="M473.91 290.1s15.49 31.79 16.31 42.66-15.75 25.64-15.75 25.64l-12.35-43h11.79Z"></path>
  <path fill="url(#e)" d="M622.65 290.1s15.49 31.79 16.31 42.66-15.75 25.64-15.75 25.64l-12.35-43h11.79Z" style="isolation:isolate" transform="translate(-148.74)"></path>
  <path fill="#68e1fd" d="M474.47 358.4s10.1-27.76 9-34.15-9.56-26.51-9.56-26.51v17.68l-14.9.31Z"></path>
  <path fill="url(#f)" d="M415.77 416.97h53.16v3.88h-53.16z"></path>
  <path fill="url(#b)" d="M433.88 276.72h15.34v39.01h-15.34z"></path>
  <path fill="url(#g)" d="M598 272.44v43.29h-8.09v-2.64a5.84 5.84 0 0 0-5.85-5.84h-.46a14.54 14.54 0 0 1-14.6-14.54v-20.27Z" transform="translate(-148.74)"></path>
  <path fill="#3f3d56" d="M424.15 259.22c3.23-1.84 7.12-2 10.85-2.11l7.94-.23a26.52 26.52 0 0 1 5.27.2 13 13 0 0 1 9.89 17.69 6 6 0 0 0-.59 2c0 1.11.72 2.07 1.1 3.11 1.1 2.95-.69 6.17-2.69 8.61s-4.37 4.92-4.66 8.06c-.09 1 0 2.2-.67 3a2.52 2.52 0 0 1-3.16.22 7.42 7.42 0 0 1-2.2-2.6c.08 1.48-2 2.3-3.3 1.61a5.26 5.26 0 0 1-2.24-3.7 11.93 11.93 0 0 0-1.34-4.22c-.68-1-1.76-1.71-2.12-2.85-.63-2 1.35-4.24.6-6.23-.62-1.62-2.85-2.1-4.45-1.41a9.77 9.77 0 0 0-3.71 3.57c1.47-2 .26-5.43-1.26-7.05-2.49-2.66-6.24-.41-8.32-2.32-3.97-3.67 1.54-13.35 5.06-15.35Z"></path>
  <path fill="url(#h)" d="M594.53 315.65s-5.95 7.79-14.2 7.79S548 347 546.43 354.13s-7 3.21-7 3.21 3.35-7.64 8.24-24.74 20.77-17.18 20.77-17.18H590Z" style="isolation:isolate" transform="translate(-148.74)"></path>
  <path fill="#222a72" d="m437.69 569.56 4.2 10.3-16.94 8-15.69 1.14s-2.68-10.31 4.65-11.23a25 25 0 0 0 11.84-4.58ZM451.13 574.22a12.7 12.7 0 0 0-7.8 10.46l-.44 4.35h19.23v-14.81Z"></path>
  <path fill="url(#i)" d="m518.49 336.37-8.09-10s-2.76-10.67-4.31-4.06c-.87 3.71-3.34 10.42-3.34 10.42h-12.4s8.7 9.19 12.4 10.87a20.66 20.66 0 0 0 5.3 1.53Z" transform="translate(-148.74)"></path>
</svg>
