<svg xmlns="http://www.w3.org/2000/svg" viewBox="0 0 64 64" xml:space="preserve" style="fill-rule:evenodd;clip-rule:evenodd;stroke-linecap:round;stroke-linejoin:round;stroke-miterlimit:2"><path style="opacity:1;fill:none;stroke:#222a33;stroke-width:2px;stop-opacity:1" d="M57 20a3.995 3.995 0 0 0-1.172-2.828A3.995 3.995 0 0 0 53 16H11a3.995 3.995 0 0 0-2.828 1.172A3.995 3.995 0 0 0 7 20v24c0 1.061.421 2.078 1.172 2.828A3.995 3.995 0 0 0 11 48h42a3.995 3.995 0 0 0 2.828-1.172A3.995 3.995 0 0 0 57 44V20z"/><path style="opacity:1;fill:none;stroke:#222a33;stroke-width:2px;stop-opacity:1" d="M16.375 44h-3.208a2.003 2.003 0 0 1-2-2v-3m36.458-19h3.208a2.003 2.003 0 0 1 2 2v3m-41.666 0v-3a2 2 0 0 1 2-2h3.208M52.833 39v3a2 2 0 0 1-2 2h-3.208M34 28a2.5 2.5 0 1 0-2 4 2.5 2.5 0 0 1 0 5 2.5 2.5 0 0 1-2-1M32 27v-2M32 39v-2"/></svg>